<svg width="149" height="134" viewBox="0 0 149 134" fill="none" xmlns="http://www.w3.org/2000/svg">
<path d="M7.488 101.412V122.004H17.928V126.252H2.448V101.412H7.488ZM34.8806 116.136V118.296C34.8806 123.228 32.5406 126.576 27.1046 126.576C21.8846 126.576 19.3286 123.336 19.3286 118.296V116.136C19.3286 110.736 22.1726 107.928 27.1046 107.928C32.1086 107.928 34.8806 110.736 34.8806 116.136ZM27.1046 122.688C29.6246 122.688 30.3086 120.744 30.3086 118.152V116.28C30.3086 113.4 29.3726 111.816 27.1046 111.816C24.8366 111.816 23.9006 113.4 23.9006 116.28V118.152C23.9006 120.744 24.5486 122.688 27.1046 122.688ZM37.0415 120.924C37.0415 117.108 39.9215 115.452 43.7015 115.452H47.2655V114.408C47.2655 112.392 46.6535 111.744 44.0615 111.744C42.2975 111.744 41.4335 111.996 40.6775 113.184L37.4375 110.916C38.7695 108.72 40.7855 107.928 44.4935 107.928C49.1375 107.928 51.7655 109.296 51.7655 114.444V126.252H47.2655V124.668C46.5455 125.892 45.4655 126.576 43.3775 126.576C39.6335 126.576 37.0415 124.596 37.0415 120.924ZM47.2655 119.52V118.836H44.2415C42.3695 118.836 41.5415 119.448 41.5415 120.852C41.5415 122.22 42.5855 122.868 44.1695 122.868C46.2575 122.868 47.2655 121.968 47.2655 119.52ZM65.7813 109.188V101.412H70.3533V126.252H65.7813V125.208C64.8453 126.072 63.6213 126.576 61.9293 126.576C57.2133 126.576 54.8013 123.228 54.8013 118.44V115.992C54.8013 110.736 57.6453 107.928 61.9293 107.928C63.4773 107.928 64.7733 108.324 65.7813 109.188ZM62.5773 122.688C65.1693 122.688 65.7813 120.744 65.7813 118.152V115.884C65.7813 113.256 64.7373 111.816 62.5773 111.816C60.3093 111.816 59.3733 113.4 59.3733 116.28V118.152C59.3733 120.744 60.0933 122.688 62.5773 122.688ZM74.5869 126.252V108.252H79.1949V126.252H74.5869ZM74.4069 105.876V101.412H79.3749V105.876H74.4069ZM83.3985 126.252V108.252H87.8985V109.764C88.5825 108.864 90.0225 107.928 92.0385 107.928C95.6745 107.928 98.6265 109.656 98.6265 114.984V126.252H94.0545V115.704C94.0545 112.896 93.0465 111.888 91.1745 111.888C89.0505 111.888 88.0065 113.292 88.0065 115.668V126.252H83.3985ZM112.68 109.188V108.252H117.252V125.892C117.252 131.904 113.868 133.308 109.332 133.308C105.984 133.308 103.86 132.516 102.276 130.068L105.372 127.836C106.164 128.916 107.208 129.456 108.9 129.456C111.636 129.456 112.68 128.664 112.68 125.892V125.316C111.708 126.144 110.448 126.576 108.828 126.576C104.112 126.576 101.7 123.228 101.7 118.44V115.992C101.7 110.736 104.544 107.928 108.828 107.928C110.448 107.928 111.708 108.36 112.68 109.188ZM109.476 122.688C111.924 122.688 112.68 120.924 112.68 118.548V116.28C112.68 113.4 111.744 111.816 109.476 111.816C107.208 111.816 106.272 113.4 106.272 116.28V118.152C106.272 120.744 106.992 122.688 109.476 122.688ZM126.885 120.636V126.252H121.269V120.636H126.885ZM136.835 120.636V126.252H131.219V120.636H136.835ZM146.784 120.636V126.252H141.168V120.636H146.784Z" fill="white"/>
<path opacity="0.2" d="M81.4997 13.1252C81.4997 11.2709 82.0495 9.45835 83.0797 7.91661C84.1098 6.37487 85.574 5.17323 87.2871 4.46365C89.0002 3.75406 90.8853 3.5684 92.7039 3.93015C94.5225 4.29189 96.193 5.18479 97.5041 6.49593C98.8152 7.80707 99.7081 9.47757 100.07 11.2962C100.432 13.1148 100.246 14.9998 99.5364 16.7129C98.8268 18.426 97.6252 19.8902 96.0834 20.9203C94.5417 21.9505 92.7291 22.5003 90.8748 22.5003C88.3884 22.5003 86.0038 21.5126 84.2456 19.7544C82.4874 17.9962 81.4997 15.6116 81.4997 13.1252ZM104.675 39.3381C104.343 38.7775 103.871 38.3129 103.305 37.9902C102.739 37.6675 102.099 37.4978 101.448 37.4978C100.796 37.4978 100.156 37.6675 99.5901 37.9902C99.0241 38.3129 98.552 38.7775 98.2203 39.3381L82.7513 65.4714L72.9073 48.7508H37.6005L17.7485 82.5014H130.251L104.675 39.3381Z" fill="white"/>
<path d="M90.8749 26.2505C93.4708 26.2505 96.0084 25.4807 98.1669 24.0385C100.325 22.5963 102.008 20.5464 103.001 18.1481C103.994 15.7497 104.254 13.1107 103.748 10.5646C103.241 8.01859 101.991 5.6799 100.156 3.8443C98.3202 2.0087 95.9815 0.758644 93.4355 0.252204C90.8894 -0.254236 88.2504 0.00568694 85.8521 0.999105C83.4537 1.99252 81.4039 3.67482 79.9616 5.83325C78.5194 7.99169 77.7496 10.5293 77.7496 13.1252C77.7496 16.6063 79.1325 19.9447 81.5939 22.4062C84.0554 24.8676 87.3938 26.2505 90.8749 26.2505ZM90.8749 7.50014C91.9874 7.50014 93.075 7.83005 94 8.44814C94.9251 9.06624 95.646 9.94476 96.0718 10.9726C96.4975 12.0005 96.6089 13.1315 96.3919 14.2226C96.1748 15.3138 95.6391 16.3161 94.8524 17.1028C94.0657 17.8895 93.0634 18.4252 91.9723 18.6423C90.8811 18.8593 89.7501 18.7479 88.7222 18.3222C87.6944 17.8964 86.8159 17.1754 86.1978 16.2504C85.5797 15.3253 85.2498 14.2378 85.2498 13.1252C85.2498 11.6334 85.8424 10.2026 86.8973 9.14769C87.9522 8.09278 89.383 7.50014 90.8749 7.50014ZM133.476 80.589L107.9 37.4257C107.241 36.3013 106.297 35.3699 105.164 34.7249C104.031 34.0799 102.749 33.7439 101.445 33.7506C100.142 33.7438 98.8605 34.0798 97.7284 34.7248C96.5963 35.3699 95.6537 36.3013 94.9953 37.4257L82.7325 58.1261L61.7134 22.4535C61.0511 21.3279 60.1063 20.3947 58.9725 19.7463C57.8387 19.0979 56.5553 18.7569 55.2492 18.7569C53.9432 18.7569 52.6597 19.0979 51.526 19.7463C50.3922 20.3947 49.4474 21.3279 48.7851 22.4535L14.5188 80.5983C14.1834 81.1678 14.0045 81.8158 14.0001 82.4767C13.9957 83.1376 14.1661 83.7879 14.4939 84.3618C14.8218 84.9356 15.2955 85.4126 15.867 85.7445C16.4386 86.0764 17.0877 86.2513 17.7486 86.2516H130.251C130.912 86.2514 131.563 86.0761 132.135 85.7435C132.707 85.4108 133.181 84.9326 133.509 84.3574C133.836 83.7822 134.006 83.1306 134 82.4687C133.994 81.8069 133.813 81.1583 133.476 80.589ZM55.2492 26.2505L66.2979 45.0008H44.2006L55.2492 26.2505ZM24.3112 78.7514L39.7802 52.501H70.7183L86.1873 78.7514H24.3112ZM94.8921 78.7514L87.0826 65.4949L101.445 41.2507L123.688 78.7514H94.8921Z" fill="white"/>
</svg>
